<svg viewBox="0 0 820 420" xmlns="http://www.w3.org/2000/svg" font-family="Georgia, 'Times New Roman', serif">
<rect x="0" y="0" width="820" height="420" fill="#faf6ef"/>
<text x="70" y="26" font-size="19" fill="#1a1a1a" font-weight="bold">No Margin — squeezing the zeros</text>
<text x="70" y="42" font-size="12.5" fill="#7a7367">Force the zeros tighter than their natural repulsion; reconstruction error explodes at 5%</text>
<line x1="70" y1="364" x2="790" y2="364" stroke="#1a1a1a" stroke-width="1.1"/>
<line x1="70" y1="46" x2="70" y2="364" stroke="#1a1a1a" stroke-width="1.1"/>
<line x1="66" y1="364.0" x2="70" y2="364.0" stroke="#1a1a1a"/>
<line x1="70" y1="364.0" x2="790" y2="364.0" stroke="#7a7367" stroke-opacity="0.18"/>
<text x="61" y="368.0" font-size="11" fill="#7a7367" text-anchor="end">0</text>
<line x1="66" y1="300.4" x2="70" y2="300.4" stroke="#1a1a1a"/>
<line x1="70" y1="300.4" x2="790" y2="300.4" stroke="#7a7367" stroke-opacity="0.18"/>
<text x="61" y="304.4" font-size="11" fill="#7a7367" text-anchor="end">3</text>
<line x1="66" y1="236.8" x2="70" y2="236.8" stroke="#1a1a1a"/>
<line x1="70" y1="236.8" x2="790" y2="236.8" stroke="#7a7367" stroke-opacity="0.18"/>
<text x="61" y="240.8" font-size="11" fill="#7a7367" text-anchor="end">6</text>
<line x1="66" y1="173.2" x2="70" y2="173.2" stroke="#1a1a1a"/>
<line x1="70" y1="173.2" x2="790" y2="173.2" stroke="#7a7367" stroke-opacity="0.18"/>
<text x="61" y="177.2" font-size="11" fill="#7a7367" text-anchor="end">9</text>
<line x1="66" y1="109.6" x2="70" y2="109.6" stroke="#1a1a1a"/>
<line x1="70" y1="109.6" x2="790" y2="109.6" stroke="#7a7367" stroke-opacity="0.18"/>
<text x="61" y="113.6" font-size="11" fill="#7a7367" text-anchor="end">12</text>
<line x1="66" y1="46.0" x2="70" y2="46.0" stroke="#1a1a1a"/>
<line x1="70" y1="46.0" x2="790" y2="46.0" stroke="#7a7367" stroke-opacity="0.18"/>
<text x="61" y="50.0" font-size="11" fill="#7a7367" text-anchor="end">15</text>
<text x="430.0" y="406" font-size="12.5" fill="#7a7367" text-anchor="middle">squeeze  (%)</text>
<text x="18" y="205.0" font-size="12.5" fill="#7a7367" text-anchor="middle" transform="rotate(-90 18 205.0)">reconstruction error</text>
<rect x="82.0" y="360.8" width="20" height="3.2" fill="#2c6e8f" fill-opacity="0.82"/>
<text x="92.0" y="354.8" font-size="10.5" fill="#1a1a1a" text-anchor="middle">0.15</text>
<text x="92.0" y="380.0" font-size="10.5" fill="#7a7367" text-anchor="middle">0%</text>
<rect x="118.8" y="246.6" width="20" height="117.4" fill="#c0392b" fill-opacity="0.82"/>
<text x="128.8" y="240.6" font-size="10.5" fill="#1a1a1a" text-anchor="middle">5.54</text>
<text x="128.8" y="380.0" font-size="10.5" fill="#7a7367" text-anchor="middle">5%</text>
<rect x="229.0" y="254.2" width="20" height="109.8" fill="#c0392b" fill-opacity="0.82"/>
<text x="239.0" y="248.2" font-size="10.5" fill="#1a1a1a" text-anchor="middle">5.18</text>
<text x="239.0" y="380.0" font-size="10.5" fill="#7a7367" text-anchor="middle">20%</text>
<rect x="449.4" y="252.3" width="20" height="111.7" fill="#c0392b" fill-opacity="0.82"/>
<text x="459.4" y="246.3" font-size="10.5" fill="#1a1a1a" text-anchor="middle">5.27</text>
<text x="459.4" y="380.0" font-size="10.5" fill="#7a7367" text-anchor="middle">50%</text>
<rect x="743.3" y="71.4" width="20" height="292.6" fill="#c0392b" fill-opacity="0.82"/>
<text x="753.3" y="65.4" font-size="10.5" fill="#1a1a1a" text-anchor="middle">13.80</text>
<text x="753.3" y="380.0" font-size="10.5" fill="#7a7367" text-anchor="middle">90%</text>
</svg>