<svg viewBox="0 0 820 420" xmlns="http://www.w3.org/2000/svg" font-family="Georgia, 'Times New Roman', serif">
<rect x="0" y="0" width="820" height="420" fill="#faf6ef"/>
<text x="70" y="26" font-size="19" fill="#1a1a1a" font-weight="bold">The Wind — S(t)</text>
<text x="70" y="42" font-size="12.5" fill="#7a7367">The tremor of the zero-count around its smooth trend · 2000 real zeros · std = 0.2691</text>
<line x1="70" y1="364" x2="790" y2="364" stroke="#1a1a1a" stroke-width="1.1"/>
<line x1="70" y1="46" x2="70" y2="364" stroke="#1a1a1a" stroke-width="1.1"/>
<line x1="66" y1="354.6" x2="70" y2="354.6" stroke="#1a1a1a"/>
<line x1="70" y1="354.6" x2="790" y2="354.6" stroke="#7a7367" stroke-opacity="0.18"/>
<text x="61" y="358.6" font-size="11" fill="#7a7367" text-anchor="end">-0.8</text>
<line x1="66" y1="279.8" x2="70" y2="279.8" stroke="#1a1a1a"/>
<line x1="70" y1="279.8" x2="790" y2="279.8" stroke="#7a7367" stroke-opacity="0.18"/>
<text x="61" y="283.8" font-size="11" fill="#7a7367" text-anchor="end">-0.4</text>
<line x1="66" y1="205.0" x2="70" y2="205.0" stroke="#1a1a1a"/>
<line x1="70" y1="205.0" x2="790" y2="205.0" stroke="#7a7367" stroke-opacity="0.18"/>
<text x="61" y="209.0" font-size="11" fill="#7a7367" text-anchor="end">0</text>
<line x1="66" y1="130.2" x2="70" y2="130.2" stroke="#1a1a1a"/>
<line x1="70" y1="130.2" x2="790" y2="130.2" stroke="#7a7367" stroke-opacity="0.18"/>
<text x="61" y="134.2" font-size="11" fill="#7a7367" text-anchor="end">0.4</text>
<line x1="66" y1="55.4" x2="70" y2="55.4" stroke="#1a1a1a"/>
<line x1="70" y1="55.4" x2="790" y2="55.4" stroke="#7a7367" stroke-opacity="0.18"/>
<text x="61" y="59.4" font-size="11" fill="#7a7367" text-anchor="end">0.8</text>
<text x="430.0" y="406" font-size="12.5" fill="#7a7367" text-anchor="middle">height  t  (14 → 2515)</text>
<text x="18" y="205.0" font-size="12.5" fill="#7a7367" text-anchor="middle" transform="rotate(-90 18 205.0)">S(t)</text>
<line x1="70" y1="205.0" x2="790" y2="205.0" stroke="#1a1a1a" stroke-opacity="0.35" stroke-dasharray="3 3"/>
<polyline points="70.0,195.5 72.0,218.1 73.1,185.0 74.7,237.0 75.4,170.8 76.8,222.5 77.7,217.2 78.4,166.5 79.8,255.6 80.3,176.6 81.2,189.5 82.2,226.4 83.0,231.1 83.4,143.8 84.7,250.5 85.2,201.2 86.0,189.4 86.7,184.1 87.7,264.0 88.1,184.0 88.8,161.6 89.8,246.6 90.3,200.3 91.1,222.9 91.5,144.6 92.6,250.2 93.2,236.8 93.5,148.4 94.4,202.9 95.1,220.7 95.8,233.8 96.3,190.9 96.8,148.8 97.9,289.8 98.1,175.1 98.8,198.5 99.4,176.6 100.1,213.1 100.9,252.6 101.3,204.8 101.7,133.9 102.6,237.8 103.2,236.0 103.7,185.2 104.4,216.8 104.7,144.4 105.7,265.2 106.2,227.5 106.6,168.8 107.1,166.3 108.0,249.0 108.4,195.3 109.1,256.0 109.4,151.4 110.0,163.5 110.9,270.9 111.3,226.0 111.7,159.3 112.3,197.6 112.9,188.8 113.6,245.3 114.1,218.9 114.6,218.7 114.8,111.9 115.9,269.4 116.2,215.1 116.7,195.4 117.3,200.8 117.7,167.3 118.4,209.4 119.2,290.4 119.4,176.3 119.8,153.7 120.5,188.1 121.2,266.3 121.5,186.5 122.1,222.7 122.6,200.7 122.9,130.5 123.9,278.0 124.2,217.9 124.7,206.4 125.1,144.4 125.8,218.5 126.3,205.6 126.9,239.7 127.3,226.3 127.7,165.2 128.2,148.9 129.0,267.6 129.5,255.0 129.7,143.8 130.4,230.4 130.7,147.3 131.4,220.3 131.9,238.2 132.5,256.2 132.7,148.3 133.2,144.8 134.0,263.0 134.4,210.6 134.9,216.9 135.3,191.8 135.8,197.6 136.2,146.4 137.1,294.0 137.4,212.5 137.8,186.6 138.2,157.6 138.8,196.4 139.4,255.7 139.7,187.2 140.4,246.7 140.7,199.6 141.0,115.7 141.8,236.2 142.4,270.1 142.7,200.9 143.1,159.8 143.6,201.8 144.1,185.5 144.7,219.0 145.3,271.2 145.5,181.5 146.0,197.3 146.3,120.7 147.2,299.7 147.5,197.2 147.9,194.5 148.5,215.6 148.8,170.1 149.3,173.2 149.9,244.8 150.4,253.6 150.8,227.6 151.0,110.2 151.7,199.3 152.2,226.3 152.8,247.5 153.1,181.3 153.7,244.5 153.9,157.4 154.4,142.8 155.2,290.8 155.5,226.4 155.9,186.1 156.3,180.3 156.7,166.9 157.4,243.5 157.7,187.1 158.4,270.0 158.7,198.3 159.0,166.3 159.4,143.1 160.2,259.5 160.6,259.6 160.9,181.0 161.4,173.5 162.0,242.9 162.1,122.8 162.9,247.3 163.3,237.9 163.8,231.1 164.1,184.8 164.4,118.2 165.1,241.6 165.6,255.7 165.9,179.1 166.5,236.3 166.8,180.0 167.2,169.0 167.7,175.1 168.4,291.6 168.7,240.9 169.0,150.3 169.5,178.9 169.9,178.2 170.5,237.6 170.9,220.3 171.4,211.9 171.9,240.5 172.1,171.6 172.5,115.9 173.3,294.5 173.6,205.1 174.1,256.8 174.3,130.4 174.9,200.9 175.3,189.2 175.7,199.0 176.3,251.6 176.7,249.8 177.0,173.6 177.4,153.6 177.9,165.8 178.6,299.5 178.8,209.5 179.2,168.1 179.8,246.6 180.0,158.1 180.5,160.8 181.1,229.1 181.6,271.4 181.9,211.0 182.3,194.3 182.6,118.6 183.3,235.3 183.7,217.9 184.1,225.7 184.5,220.2 184.9,193.9 185.4,225.8 185.5,93.2 186.4,272.4 186.8,269.6 187.0,180.5 187.4,172.8 187.9,191.3 188.3,173.9 188.9,255.4 189.2,183.8 189.8,273.5 190.1,208.9 190.3,127.3 190.8,160.8 191.5,260.4 191.9,252.7 192.2,197.1 192.6,174.0 193.1,210.3 193.4,177.9 193.8,170.1 194.6,305.5 194.7,192.2 195.2,222.0 195.5,159.4 195.9,134.7 196.6,276.6 196.9,215.4 197.3,201.0 197.7,215.1 198.2,233.6 198.4,120.0 198.9,185.8 199.5,253.7 200.0,273.5 200.2,201.7 200.5,126.1 201.1,208.2 201.5,180.1 202.0,253.5 202.3,199.7 202.8,239.9 203.2,203.5 203.6,184.8 203.8,109.6 204.6,295.4 204.9,238.2 205.2,182.5 205.7,213.8 206.0,154.9 206.5,207.7 206.9,186.8 207.4,225.0 207.9,286.7 208.1,183.3 208.5,178.3 208.8,130.5 209.5,223.4 210.0,261.5 210.3,243.3 210.5,143.9 211.2,247.0 211.4,179.5 211.7,129.5 212.4,247.9 212.8,252.4 213.2,235.3 213.5,187.2 213.8,137.2 214.3,181.8 214.9,277.6 215.1,175.2 215.7,234.1 216.1,233.7 216.3,169.2 216.8,180.1 217.1,140.2 217.9,325.7 218.0,205.0 218.4,202.7 218.8,155.7 219.3,209.3 219.6,166.6 220.1,228.8 220.5,227.9 220.9,220.8 221.4,270.3 221.6,138.7 221.9,113.0 222.6,254.7 223.0,242.1 223.4,237.7 223.7,173.1 224.1,194.4 224.5,203.4 224.8,160.2 225.3,201.8 225.9,285.1 226.2,245.9 226.4,147.6 226.9,194.6 227.2,131.1 227.9,254.1 228.3,281.4 228.4,140.6 229.1,247.3 229.4,198.7 229.7,171.6 230.0,135.7 230.7,266.7 231.1,240.2 231.5,252.0 231.7,160.9 232.0,139.5 232.6,229.8 232.9,182.5 233.5,239.4 233.8,226.2 234.2,218.0 234.6,223.0 234.8,138.3 235.2,140.0 236.0,293.7 236.3,250.8 236.5,178.2 236.9,181.1 237.4,231.6 237.6,130.6 238.2,232.4 238.5,188.1 239.1,280.3 239.4,225.9 239.7,181.0 240.0,128.6 240.5,181.9 241.1,271.1 241.4,217.0 241.8,227.4 242.0,167.8 242.6,229.7 242.9,185.4 243.1,120.1 243.9,284.5 244.2,243.9 244.5,205.6 244.9,215.0 245.1,119.0 245.6,191.3 246.1,243.8 246.5,227.9 246.8,185.8 247.4,293.4 247.5,151.8 247.9,159.6 248.3,154.0 248.9,238.6 249.4,309.1 249.6,194.7 249.9,145.6 250.4,201.7 250.7,186.9 251.1,183.5 251.6,232.4 252.0,232.6 252.4,240.5 252.7,194.9 253.1,202.7 253.2,80.7 254.1,305.7 254.3,208.8 254.7,216.5 255.0,203.1 255.4,183.8 255.8,202.9 256.1,161.7 256.6,193.7 257.1,276.8 257.5,242.2 257.8,217.9 258.0,118.8 258.5,185.6 258.9,185.9 259.5,295.7 259.7,190.1 260.1,185.6 260.6,247.0 260.9,211.8 261.0,104.2 261.6,187.9 262.2,301.1 262.4,212.8 262.8,222.7 263.1,169.6 263.5,148.8 264.0,213.1 264.4,222.9 264.7,190.5 265.3,280.1 265.5,194.6 265.9,197.6 266.2,177.6 266.5,116.6 267.2,281.0 267.5,257.4 267.8,211.3 268.1,154.2 268.6,220.9 268.9,187.3 269.2,149.0 269.8,255.1 270.1,203.2 270.6,283.6 270.9,205.0 271.1,137.5 271.5,138.3 272.1,237.3 272.5,243.5 272.8,234.2 273.1,181.9 273.6,228.3 273.9,172.1 274.3,206.6 274.5,120.9 275.2,286.4 275.6,290.2 275.7,153.1 276.2,200.7 276.5,155.4 276.9,166.8 277.5,259.1 277.7,210.4 278.1,206.0 278.5,235.6 278.9,237.2 279.1,144.5 279.5,125.5 280.1,242.2 280.5,261.3 280.8,238.4 281.2,218.5 281.3,112.3 282.0,268.7 282.1,125.9 282.7,212.5 283.1,229.9 283.5,259.1 283.8,204.6 284.2,207.7 284.4,134.6 284.8,144.9 285.5,303.1 285.7,243.7 286.0,158.7 286.5,226.1 286.8,200.8 287.1,165.9 287.5,180.9 287.9,191.0 288.4,274.8 288.8,253.4 289.0,199.7 289.3,149.1 289.7,148.4 290.2,227.9 290.6,211.9 291.1,281.7 291.2,160.7 291.7,216.6 292.1,238.0 292.3,154.7 292.6,112.5 293.4,298.2 293.6,222.3 294.0,265.1 294.2,144.4 294.6,187.1 295.0,161.9 295.4,213.7 295.9,234.9 296.1,184.4 296.7,278.7 297.0,227.1 297.2,141.2 297.6,173.6 297.9,145.4 298.6,289.4 298.9,253.6 299.1,194.4 299.4,166.9 299.9,209.5 300.3,207.0 300.5,139.4 301.0,221.4 301.5,273.9 301.8,206.3 302.2,239.3 302.5,196.1 302.6,79.3 303.3,230.2 303.7,262.9 304.0,201.7 304.4,223.1 304.7,195.4 305.1,220.5 305.4,164.9 305.7,153.0 306.2,205.8 306.8,316.0 307.0,224.1 307.2,168.4 307.6,158.6 308.0,200.5 308.3,160.0 308.9,282.8 309.1,189.1 309.5,204.7 310.0,277.1 310.2,165.6 310.6,179.1 310.8,106.5 311.5,287.4 311.8,236.7 312.1,223.9 312.5,212.0 312.7,145.9 313.2,192.1 313.6,225.6 313.8,150.0 314.4,258.7 314.7,240.4 315.1,237.1 315.3,171.7 315.7,170.8 316.0,127.2 316.6,259.6 317.0,269.5 317.3,216.2 317.5,148.0 318.1,266.2 318.3,169.6 318.6,137.5 319.1,204.4 319.5,231.2 319.9,272.6 320.2,239.2 320.5,165.3 320.8,136.3 321.2,182.1 321.7,234.2 322.1,232.9 322.4,204.8 322.8,249.9 323.0,170.9 323.5,244.7 323.7,133.2 324.0,128.4 324.8,323.8 325.0,231.0 325.3,190.4 325.7,209.3 325.9,148.9 326.4,199.0 326.7,178.8 327.2,262.1 327.4,175.3 327.9,262.6 328.2,230.9 328.6,206.3 328.7,92.3 329.3,187.8 329.7,241.7 330.1,272.8 330.4,235.8 330.6,139.6 331.1,206.1 331.5,218.7 331.7,148.2 332.1,182.2 332.7,259.5 333.0,265.6 333.3,199.4 333.6,192.4 333.9,174.3 334.2,112.7 334.9,302.7 335.1,206.5 335.4,203.1 335.8,210.4 336.2,245.6 336.4,153.5 336.9,189.5 337.1,136.0 337.7,267.6 338.1,251.5 338.5,278.2 338.6,137.9 338.9,140.2 339.4,222.7 339.7,167.4 340.2,233.7 340.6,256.2 340.8,173.8 341.3,262.9 341.6,200.7 341.8,149.0 342.1,118.3 342.8,262.2 343.2,301.8 343.3,172.4 343.7,208.4 344.0,179.5 344.4,181.4 344.8,184.1 345.2,220.4 345.5,175.3 346.1,305.5 346.3,221.7 346.5,170.0 346.9,193.8 347.2,117.7 347.7,208.6 348.2,293.8 348.4,213.6 348.7,193.2 349.1,183.4 349.5,238.9 349.8,193.8 350.0,100.9 350.6,250.7 351.0,249.1 351.3,235.3 351.7,252.4 351.8,138.6 352.2,130.9 352.7,215.4 353.1,225.4 353.5,236.9 353.7,195.3 354.2,243.4 354.5,215.6 354.7,159.0 355.1,184.5 355.4,128.6 356.1,313.8 356.3,246.1 356.6,211.9 356.8,140.2 357.4,231.6 357.6,142.7 358.0,202.4 358.4,222.9 358.8,218.5 359.2,234.3 359.5,245.2 359.8,210.4 360.0,118.4 360.4,134.6 361.1,308.5 361.2,188.5 361.7,268.5 361.9,181.8 362.2,161.4 362.7,227.9 363.0,182.9 363.2,144.7 363.8,231.1 364.2,284.6 364.5,223.5 364.8,198.1 365.0,161.5 365.4,155.0 365.8,174.4 366.4,292.1 366.6,240.7 366.8,143.7 367.4,258.6 367.6,208.2 367.9,168.4 368.2,140.2 368.6,194.0 369.1,261.4 369.6,308.5 369.6,155.2 370.1,225.4 370.2,101.1 370.8,224.5 371.1,190.9 371.5,211.8 371.9,240.7 372.2,230.3 372.5,203.7 372.9,221.7 373.2,180.7 373.4,81.0 374.1,283.1 374.4,261.8 374.7,216.4 375.0,186.4 375.3,179.5 375.8,225.0 375.9,138.6 376.4,215.5 376.8,206.6 377.2,228.1 377.7,314.2 377.8,179.6 378.0,128.7 378.5,166.3 378.8,173.1 379.3,269.0 379.6,241.5 380.0,218.3 380.2,164.1 380.7,240.1 380.9,182.6 381.3,172.0 381.5,133.8 382.3,321.7 382.4,214.5 382.8,214.1 383.1,221.5 383.3,144.1 383.7,138.7 384.2,241.7 384.5,232.8 384.8,199.7 385.2,225.9 385.6,236.8 385.9,203.7 386.2,169.1 386.4,130.7 386.9,200.8 387.4,279.2 387.8,274.0 388.0,197.7 388.2,132.4 388.7,205.0 389.1,219.0 389.2,131.2 389.9,285.9 390.0,168.2 390.5,273.8 390.8,206.1 391.1,219.8 391.3,135.1 391.7,118.7 392.3,273.9 392.6,268.9 392.8,186.5 393.2,211.0 393.6,213.1 393.8,156.2 394.3,237.0 394.5,133.4 394.9,193.8 395.5,304.8 395.7,226.7 396.0,208.8 396.3,165.1 396.6,150.7 397.0,175.7 397.4,233.8 397.8,260.9 398.1,220.8 398.3,159.0 398.9,270.7 399.1,209.5 399.3,110.8 399.7,153.5 400.3,264.1 400.6,246.6 400.9,248.2 401.2,222.3 401.4,118.2 401.9,191.2 402.2,181.9 402.6,245.6 402.9,177.7 403.3,248.5 403.7,245.9 404.0,203.2 404.2,169.2 404.6,202.9 404.8,89.6 405.5,306.9 405.8,268.3 406.0,176.9 406.4,194.9 406.7,184.1 407.1,222.1 407.3,147.3 407.7,189.6 408.2,238.4 408.5,224.2 408.9,274.3 409.1,202.2 409.5,187.7 409.6,84.0 410.2,237.1 410.5,212.1 411.0,277.5 411.2,195.2 411.5,192.0 411.9,204.8 412.3,225.3 412.5,150.6 412.8,140.4 413.3,248.3 413.8,311.9 414.0,206.0 414.2,161.2 414.7,211.9 414.9,134.0 415.3,179.7 415.8,273.4 416.0,210.8 416.3,179.0 416.9,286.1 417.0,187.5 417.4,189.0 417.6,139.4 418.0,150.1 418.6,287.3 418.8,231.5 419.2,260.7 419.4,181.2 419.7,131.8 420.2,226.1 420.5,192.7 420.7,157.6 421.2,245.4 421.6,250.9 421.9,204.8 422.3,265.9 422.4,154.4 422.7,129.9 423.1,151.0 423.8,320.3 423.9,205.7 424.3,225.4 424.5,165.0 425.0,248.3 425.2,170.0 425.5,155.8 426.0,207.1 426.2,175.6 426.8,306.0 427.0,238.4 427.3,205.4 427.5,140.3 427.9,167.8 428.3,176.0 428.7,236.0 429.1,248.9 429.4,211.1 429.7,200.9 430.1,216.0 430.4,221.9 430.7,196.2 430.8,67.7 431.6,283.3 431.8,256.7 432.1,219.8 432.5,218.9 432.7,179.7 433.0,134.3 433.5,224.1 433.8,182.8 434.2,244.1 434.4,187.3 434.9,265.1 435.3,263.6 435.4,129.5 435.8,183.2 436.0,129.2 436.5,213.9 437.0,305.0 437.3,266.8 437.4,129.4 437.8,184.6 438.3,243.0 438.5,155.0 438.8,165.8 439.2,206.5 439.7,250.4 440.0,245.7 440.3,230.8 440.6,203.4 440.8,151.5 441.1,111.6 441.7,262.6 442.0,251.4 442.3,184.9 442.7,271.4 442.9,153.2 443.3,226.1 443.6,183.8 443.9,166.1 444.2,141.4 444.8,297.9 445.1,247.8 445.4,235.6 445.6,172.1 445.9,141.6 446.4,224.7 446.6,138.0 447.1,264.2 447.4,238.5 447.6,170.0 448.1,246.4 448.5,283.8 448.6,122.5 448.9,130.7 449.3,166.5 449.9,273.9 450.2,258.1 450.4,222.2 450.7,194.0 451.0,166.3 451.4,176.2 451.8,229.2 452.0,160.2 452.4,203.5 452.9,263.6 453.3,287.6 453.3,141.2 453.8,239.8 454.0,132.3 454.3,116.0 454.9,282.4 455.2,241.5 455.6,258.1 455.7,135.5 456.2,235.4 456.5,196.4 456.8,196.0 457.0,119.1 457.5,241.4 457.8,214.5 458.3,288.3 458.5,238.5 458.7,163.2 459.0,123.0 459.5,194.0 459.8,203.4 460.2,233.9 460.6,253.1 460.8,180.3 461.2,236.4 461.5,202.0 461.8,199.1 462.1,149.9 462.4,125.8 463.1,340.9 463.2,228.5 463.5,190.0 463.9,207.2 464.1,173.0 464.5,170.1 464.8,178.9 465.3,259.0 465.5,167.6 465.9,244.8 466.3,240.9 466.6,238.4 466.8,178.5 467.1,118.3 467.5,164.6 468.0,244.6 468.3,265.1 468.6,239.5 468.9,213.7 469.1,121.2 469.7,278.2 469.8,157.1 470.1,136.3 470.6,216.7 471.0,258.1 471.3,240.4 471.6,244.2 471.8,170.6 472.2,182.1 472.4,109.3 472.9,224.9 473.4,318.9 473.5,163.4 473.9,189.5 474.3,259.6 474.5,189.6 474.8,163.0 475.2,207.4 475.4,118.9 476.0,255.0 476.4,295.7 476.6,233.4 476.8,162.6 477.2,173.7 477.5,157.6 477.9,223.9 478.2,171.2 478.7,270.6 478.9,206.9 479.2,199.0 479.7,260.0 479.9,199.1 480.2,164.6 480.4,86.4 481.0,277.7 481.3,244.4 481.6,240.4 481.9,220.2 482.1,155.8 482.5,194.8 482.9,185.5 483.2,187.1 483.6,208.2 483.9,193.2 484.4,314.4 484.6,206.5 484.9,195.5 485.1,147.2 485.5,182.4 485.8,134.0 486.4,319.1 486.6,222.4 486.9,200.9 487.2,179.5 487.6,221.3 487.9,227.8 488.1,140.8 488.4,148.2 488.9,228.1 489.4,304.0 489.5,185.5 490.0,263.4 490.2,194.2 490.3,81.5 490.8,201.4 491.2,232.7 491.5,209.2 491.9,236.5 492.2,213.2 492.5,221.0 492.8,207.7 493.2,201.3 493.4,123.9 493.8,157.1 494.3,286.6 494.6,284.5 494.8,214.4 495.0,141.3 495.5,200.0 495.8,200.4 496.0,147.6 496.5,223.4 496.9,247.6 497.1,171.7 497.6,293.2 497.8,222.1 498.1,160.1 498.4,173.1 498.6,107.5 499.2,274.4 499.5,232.8 499.9,250.4 500.1,201.3 500.4,181.9 500.7,176.2 501.2,239.1 501.4,160.9 501.6,137.1 502.3,296.0 502.5,227.7 502.8,250.4 503.0,176.9 503.4,206.5 503.6,106.5 504.0,185.5 504.5,257.4 504.8,272.9 505.0,168.0 505.4,197.5 505.8,253.9 506.1,229.4 506.2,97.2 506.7,180.2 507.0,189.8 507.5,275.2 507.8,277.2 508.0,209.2 508.3,161.5 508.6,143.1 509.0,226.6 509.3,158.7 509.7,252.0 510.0,188.6 510.4,267.3 510.6,197.6 511.0,216.5 511.3,227.1 511.5,123.5 511.8,111.0 512.5,318.0 512.7,251.1 512.9,183.7 513.3,229.7 513.5,168.1 513.9,184.8 514.3,199.8 514.5,167.8 514.9,217.5 515.3,210.2 515.7,275.0 516.0,248.1 516.2,191.2 516.4,125.4 516.8,160.2 517.2,196.1 517.6,239.0 518.0,296.3 518.2,197.3 518.4,141.8 519.0,277.2 519.1,159.9 519.5,204.3 519.7,103.3 520.2,238.2 520.6,280.7 520.9,234.9 521.2,211.0 521.4,182.9 521.7,171.2 522.0,122.4 522.6,274.3 522.8,204.4 523.1,208.2 523.5,217.9 523.9,274.3 524.0,162.7 524.4,197.0 524.7,166.1 524.9,120.5 525.5,270.0 525.9,286.0 526.1,215.1 526.4,225.7 526.5,109.4 527.1,229.8 527.3,191.7 527.6,143.2 528.1,264.2 528.3,204.5 528.7,226.0 529.1,250.1 529.4,255.7 529.5,110.1 529.8,118.4 530.3,202.5 530.8,285.0 531.0,240.6 531.2,189.7 531.6,223.5 531.9,169.1 532.3,215.9 532.5,164.7 532.9,196.6 533.1,154.9 533.7,305.9 534.0,278.4 534.1,159.7 534.5,196.9 534.8,168.6 535.1,137.6 535.5,204.8 536.0,283.1 536.2,214.3 536.5,193.5 536.8,205.4 537.2,245.4 537.5,208.3 537.6,121.4 538.0,136.7 538.6,294.0 538.8,204.7 539.2,293.2 539.4,199.2 539.6,154.7 539.9,141.9 540.4,227.7 540.7,181.2 541.0,209.5 541.4,240.7 541.7,209.3 542.1,276.9 542.3,176.2 542.6,171.1 543.0,198.3 543.1,86.4 543.8,306.6 544.0,259.0 544.3,234.1 544.5,136.8 545.0,228.8 545.2,193.0 545.5,157.0 545.9,196.5 546.2,196.7 546.6,226.0 547.0,267.9 547.2,236.6 547.5,212.3 547.7,145.6 548.0,118.4 548.5,216.4 548.9,250.3 549.2,219.5 549.6,273.2 549.7,157.2 550.1,187.7 550.5,243.8 550.7,206.3 550.9,83.7 551.4,206.7 551.9,295.8 552.1,251.0 552.3,192.0 552.7,229.6 552.9,119.7 553.3,188.9 553.6,162.5 554.1,277.9 554.3,227.9 554.5,155.5 555.1,283.0 555.3,218.9 555.5,174.1 555.8,154.7 556.1,150.7 556.5,191.8 557.1,332.5 557.2,205.5 557.6,234.8 557.8,147.8 558.1,172.5 558.5,211.9 558.8,194.8 559.1,158.0 559.5,248.4 559.9,246.4 560.1,217.1 560.5,231.2 560.8,207.8 561.0,149.5 561.2,91.7 561.9,296.8 562.1,224.7 562.4,238.4 562.7,202.6 563.0,177.2 563.4,251.2 563.6,144.0 563.9,187.7 564.2,166.3 564.6,216.1 565.0,265.0 565.4,301.3 565.6,189.4 565.8,116.3 566.2,195.1 566.5,156.9 566.9,201.9 567.3,284.4 567.5,212.7 567.8,186.2 568.2,216.0 568.6,259.5 568.7,155.8 569.1,167.5 569.3,111.6 569.9,303.1 570.2,249.3 570.4,212.0 570.8,217.7 571.1,215.4 571.2,96.5 571.7,224.2 572.0,194.4 572.4,218.0 572.6,194.5 573.1,282.6 573.3,203.4 573.6,221.3 573.9,180.7 574.1,129.4 574.5,156.5 575.0,241.4 575.4,330.6 575.5,194.4 575.8,170.1 576.1,170.3 576.6,246.5 576.8,188.0 577.0,115.5 577.5,250.0 577.8,195.1 578.2,261.9 578.5,261.9 578.7,191.0 579.0,186.1 579.2,107.6 579.7,176.7 580.2,281.3 580.4,213.2 580.7,222.3 581.0,208.0 581.3,224.1 581.6,172.5 582.0,214.6 582.2,180.6 582.4,103.5 583.1,301.4 583.3,267.8 583.6,210.5 583.9,206.1 584.1,152.6 584.5,182.0 584.8,162.0 585.2,226.9 585.5,226.5 585.9,272.9 586.0,134.5 586.6,307.5 586.7,188.7 587.0,168.5 587.2,110.4 587.7,184.1 588.1,267.5 588.4,240.5 588.8,283.8 588.9,167.5 589.2,141.2 589.6,215.6 589.9,185.1 590.2,186.7 590.5,189.1 590.9,228.0 591.4,285.3 591.6,216.8 591.8,178.3 592.2,230.3 592.3,112.5 592.7,130.1 593.3,298.4 593.6,288.5 593.7,150.2 594.1,207.9 594.4,217.3 594.7,189.8 595.1,215.6 595.2,122.1 595.7,198.0 596.0,227.9 596.4,277.2 596.7,241.5 597.0,221.6 597.2,145.9 597.4,117.2 598.0,264.8 598.1,144.0 598.7,274.9 598.9,223.1 599.2,195.5 599.5,207.7 599.9,246.9 600.1,184.7 600.3,132.5 600.6,133.2 601.2,284.4 601.5,274.6 601.8,229.6 602.0,168.2 602.4,202.1 602.6,172.4 602.9,157.1 603.3,219.1 603.7,243.7 603.9,162.1 604.4,265.8 604.7,247.4 604.9,234.2 605.1,119.1 605.5,210.7 605.7,92.4 606.3,275.5 606.6,245.7 606.9,250.6 607.1,221.2 607.3,124.1 607.8,227.3 608.1,224.8 608.3,139.1 608.6,154.5 609.2,282.6 609.4,223.7 609.7,228.5 610.1,281.0 610.2,138.8 610.5,132.9 610.8,147.9 611.3,248.2 611.6,254.7 611.9,218.6 612.2,189.4 612.5,226.0 612.9,239.0 613.0,148.2 613.4,185.5 613.7,153.9 614.1,185.3 614.6,340.7 614.8,237.9 615.0,175.9 615.3,176.1 615.6,164.8 616.0,193.5 616.2,171.7 616.7,236.3 617.0,248.4 617.2,180.9 617.7,258.1 617.9,196.8 618.3,255.3 618.4,140.0 618.6,77.3 619.2,258.9 619.6,272.8 619.8,217.8 620.1,231.2 620.4,211.1 620.6,127.8 621.1,213.0 621.4,208.4 621.6,152.8 622.0,221.8 622.3,225.0 622.8,300.8 622.9,197.5 623.2,184.0 623.5,158.7 623.8,158.6 624.1,156.0 624.7,297.9 624.9,255.2 625.2,206.5 625.4,144.8 625.9,262.6 626.1,206.9 626.3,137.2 626.7,173.3 627.0,176.4 627.5,282.0 627.7,230.5 628.1,267.8 628.3,183.0 628.5,161.7 628.8,128.0 629.2,202.8 629.7,266.4 629.8,171.2 630.3,252.0 630.5,225.8 630.8,188.2 631.2,238.5 631.4,177.3 631.7,164.8 631.9,104.3 632.6,320.0 632.8,231.5 633.1,259.6 633.3,166.7 633.6,170.4 633.9,190.9 634.3,203.2 634.5,141.7 635.1,313.0 635.1,142.7 635.6,217.6 636.0,299.5 636.2,204.6 636.4,161.2 636.7,130.8 637.0,159.7 637.5,228.5 637.9,271.1 638.2,275.4 638.3,153.2 638.7,214.7 638.9,160.7 639.4,234.8 639.6,182.1 639.8,130.9 640.3,216.7 640.7,308.8 640.9,223.8 641.2,189.0 641.5,219.3 641.8,184.7 641.9,82.6 642.5,233.1 642.9,259.4 643.1,233.4 643.4,187.6 643.7,210.7 644.1,245.6 644.3,188.8 644.6,169.4 644.8,131.3 645.3,205.0 645.7,247.0 646.0,285.8 646.3,243.5 646.5,188.8 646.7,102.6 647.2,238.2 647.4,157.7 647.8,196.1 648.2,241.0 648.5,230.5 648.7,200.8 649.1,252.9 649.4,213.6 649.6,170.2 649.9,156.7 650.1,107.7 650.8,327.5 651.0,255.8 651.2,171.5 651.6,248.9 651.8,151.7 652.2,214.2 652.4,145.9 652.8,238.5 653.0,155.0 653.4,208.2 653.9,280.4 654.1,243.6 654.4,212.3 654.6,182.9 654.9,127.7 655.2,163.8 655.6,210.3 656.0,263.4 656.3,258.7 656.6,211.6 656.8,143.4 657.2,241.1 657.6,247.1 657.7,127.7 658.0,121.4 658.5,249.8 658.8,234.7 659.2,292.6 659.3,191.6 659.7,212.4 659.9,148.0 660.2,137.1 660.6,213.7 660.9,225.5 661.3,273.2 661.4,142.1 662.0,271.7 662.2,235.2 662.4,154.0 662.8,209.9 663.0,156.4 663.3,117.3 663.9,291.1 664.2,283.2 664.4,231.6 664.6,153.0 665.0,197.9 665.2,164.5 665.6,236.7 665.8,132.6 666.2,223.7 666.6,242.4 666.8,209.7 667.2,236.8 667.6,278.6 667.7,162.6 667.9,109.4 668.3,138.8 668.8,273.8 669.1,225.5 669.4,247.5 669.7,237.7 669.9,151.1 670.3,199.2 670.6,234.0 670.8,140.7 671.2,195.8 671.4,156.8 672.0,312.8 672.2,233.5 672.5,250.3 672.6,140.4 673.0,181.9 673.3,172.3 673.6,134.1 674.2,308.1 674.3,220.9 674.6,191.9 674.9,197.2 675.3,251.6 675.6,207.0 675.8,175.2 676.1,133.4 676.4,160.4 676.9,280.7 677.2,246.0 677.5,236.9 677.8,247.8 677.9,138.2 678.2,127.4 678.7,248.5 678.9,174.8 679.2,187.0 679.7,264.6 679.9,202.1 680.3,250.4 680.5,201.4 680.8,211.5 681.1,177.2 681.3,84.3 681.8,222.0 682.2,307.2 682.5,252.2 682.6,177.1 682.9,167.1 683.4,244.1 683.6,163.0 683.9,170.5 684.2,184.8 684.6,235.1 684.8,179.9 685.4,317.1 685.5,236.6 685.7,157.6 686.1,188.0 686.3,117.7 686.7,184.3 687.1,251.3 687.4,241.9 687.7,232.9 688.0,211.1 688.2,170.0 688.6,229.0 688.9,205.8 689.2,186.0 689.3,84.6 689.9,278.5 690.3,299.7 690.4,177.6 690.8,255.6 691.0,174.5 691.3,136.2 691.6,171.4 692.0,196.2 692.4,263.1 692.6,204.0 692.9,202.4 693.3,229.1 693.6,262.0 693.8,206.8 694.0,102.2 694.4,194.6 694.7,142.2 695.2,279.5 695.5,287.6 695.7,224.8 695.9,170.2 696.2,146.7 696.7,237.8 696.9,170.1 697.2,165.8 697.6,223.6 697.9,210.9 698.3,282.7 698.5,190.3 698.9,252.4 699.0,172.6 699.3,168.4 699.5,79.8 700.2,304.7 700.4,227.4 700.7,230.7 700.9,193.4 701.3,236.0 701.5,159.0 701.9,207.7 702.2,204.7 702.4,129.9 702.8,203.4 703.2,253.2 703.5,284.3 703.8,249.3 703.9,145.3 704.3,163.1 704.6,159.7 704.9,196.0 705.2,192.8 705.8,317.5 705.9,203.5 706.1,142.8 706.6,267.9 706.8,215.1 707.1,187.7 707.3,127.2 707.6,142.5 708.1,265.0 708.4,266.5 708.7,245.1 708.9,197.1 709.3,201.5 709.5,142.4 709.8,170.0 710.2,224.5 710.5,214.6 710.8,176.9 711.2,254.9 711.5,257.6 711.7,202.3 712.0,189.7 712.4,211.7 712.5,103.6 712.9,152.5 713.5,348.1 713.6,199.6 713.9,235.9 714.2,188.7 714.4,147.6 714.9,290.4 715.0,137.8 715.3,137.4 715.7,216.9 716.1,232.3 716.4,223.2 716.8,276.6 717.0,224.4 717.3,215.1 717.3,63.8 717.9,191.9 718.2,196.2 718.6,292.5 718.8,192.1 719.2,241.4 719.4,175.7 719.8,235.4 720.0,175.1 720.4,215.7 720.5,135.4 720.8,143.5 721.4,309.1 721.7,285.8 721.8,188.8 722.1,174.0 722.5,226.2 722.7,124.3 723.0,171.4 723.4,224.0 723.8,241.7 724.0,217.4 724.3,187.7 724.7,269.8 725.0,215.7 725.2,187.6 725.5,150.9 725.7,109.8 726.3,268.3 726.5,220.3 726.9,284.0 727.2,252.2 727.3,130.8 727.6,161.6 728.0,211.6 728.4,248.2 728.4,99.9 729.0,236.4 729.3,226.8 729.6,251.3 729.9,241.7 730.1,201.9 730.4,165.2 730.7,182.1 730.9,93.7 731.5,278.9 731.8,292.9 732.0,193.5 732.2,170.4 732.6,234.6 732.9,208.2 733.2,177.6 733.4,162.0 733.8,197.1 734.1,161.6 734.6,302.5 734.8,242.4 735.1,227.6 735.4,224.4 735.5,98.3 735.9,170.7 736.3,205.2 736.6,206.7 737.0,249.9 737.2,226.6 737.5,223.6 737.7,165.7 738.3,297.7 738.4,169.7 738.6,115.5 738.9,129.5 739.4,269.1 739.8,295.5 739.9,196.2 740.3,243.5 740.5,163.1 740.8,161.5 741.1,196.5 741.4,167.0 741.8,239.2 742.1,212.5 742.3,181.8 742.8,299.0 743.1,242.6 743.2,153.4 743.5,171.2 743.8,167.5 744.1,132.1 744.6,262.2 745.0,304.0 745.1,210.5 745.4,178.6 745.7,173.1 746.1,228.9 746.3,179.0 746.7,213.7 746.8,104.3 747.4,280.6 747.6,218.7 748.0,254.7 748.2,221.8 748.5,212.6 748.7,173.5 748.9,75.2 749.5,242.1 749.8,249.4 750.0,205.7 750.4,266.0 750.5,159.8 751.0,240.3 751.2,198.0 751.5,179.7 751.8,174.8 752.0,133.6 752.5,231.1 752.9,303.2 753.2,269.7 753.3,173.6 753.6,151.8 753.9,178.4 754.3,222.1 754.4,122.5 755.0,267.3 755.2,231.4 755.5,183.2 755.8,232.2 756.2,255.3 756.4,203.9 756.6,171.8 756.9,111.9 757.2,160.4 757.8,316.1 758.0,227.5 758.2,208.0 758.6,256.9 758.8,154.6 759.0,141.7 759.5,260.2 759.7,151.1 760.0,184.5 760.3,191.7 760.8,315.3 761.0,199.7 761.3,224.8 761.6,207.3 761.8,152.1 762.1,133.7 762.4,173.2 762.9,275.9 763.2,267.8 763.4,230.4 763.6,133.4 764.0,233.6 764.4,236.1 764.6,175.6 764.8,118.6 765.2,205.5 765.5,210.1 765.9,261.6 766.2,272.6 766.5,259.1 766.6,109.5 767.0,176.5 767.2,139.0 767.7,236.3 767.9,205.0 768.3,240.8 768.6,213.3 768.9,222.1 769.2,231.0 769.4,175.7 769.8,233.4 770.0,151.2 770.2,80.2 770.9,353.1 771.0,209.1 771.4,248.1 771.5,181.5 771.9,190.1 772.1,176.1 772.4,174.4 772.8,197.3 773.1,193.6 773.5,254.2 773.7,180.7 774.1,254.3 774.4,278.5 774.6,185.6 774.8,128.7 775.1,138.2 775.5,192.6 775.9,228.7 776.3,300.9 776.4,210.9 776.8,228.3 776.9,120.4 777.4,246.0 777.6,200.7 777.9,150.8 778.2,164.9 778.6,209.4 779.0,286.1 779.3,275.7 779.4,156.8 779.8,250.9 780.0,145.0 780.2,122.3 780.6,171.4 781.1,308.3 781.3,225.2 781.5,162.5 782.0,251.1 782.2,202.9 782.5,220.2 782.7,173.8 783.0,174.5 783.3,130.3 783.7,225.0 784.1,283.2 784.4,270.9 784.6,197.6 784.9,217.8 785.0,88.0 785.6,238.1 785.8,176.2 786.1,169.8 786.5,269.3 786.8,229.0 787.0,178.0 787.4,264.3 787.7,228.2 787.9,169.4 788.1,141.9 788.4,113.0 789.0,283.9 789.2,253.5 789.5,252.1 789.7,186.4 790.0,182.5" fill="none" stroke="#2c6e8f" stroke-width="0.8" stroke-opacity="0.9"/>
</svg>