<svg viewBox="0 0 820 420" xmlns="http://www.w3.org/2000/svg" font-family="Georgia, 'Times New Roman', serif">
<rect x="0" y="0" width="820" height="420" fill="#faf6ef"/>
<text x="70" y="26" font-size="19" fill="#1a1a1a" font-weight="bold">Speed Steadies the Line</text>
<text x="70" y="42" font-size="12.5" fill="#7a7367">Relative tremor std(S)/v falls as the spiral spins faster · corr = −0.99</text>
<line x1="70" y1="364" x2="790" y2="364" stroke="#1a1a1a" stroke-width="1.1"/>
<line x1="70" y1="46" x2="70" y2="364" stroke="#1a1a1a" stroke-width="1.1"/>
<line x1="66" y1="335.1" x2="70" y2="335.1" stroke="#1a1a1a"/>
<line x1="70" y1="335.1" x2="790" y2="335.1" stroke="#7a7367" stroke-opacity="0.18"/>
<text x="61" y="339.1" font-size="11" fill="#7a7367" text-anchor="end">0.09</text>
<line x1="66" y1="277.3" x2="70" y2="277.3" stroke="#1a1a1a"/>
<line x1="70" y1="277.3" x2="790" y2="277.3" stroke="#7a7367" stroke-opacity="0.18"/>
<text x="61" y="281.3" font-size="11" fill="#7a7367" text-anchor="end">0.1</text>
<line x1="66" y1="219.5" x2="70" y2="219.5" stroke="#1a1a1a"/>
<line x1="70" y1="219.5" x2="790" y2="219.5" stroke="#7a7367" stroke-opacity="0.18"/>
<text x="61" y="223.5" font-size="11" fill="#7a7367" text-anchor="end">0.11</text>
<line x1="66" y1="161.6" x2="70" y2="161.6" stroke="#1a1a1a"/>
<line x1="70" y1="161.6" x2="790" y2="161.6" stroke="#7a7367" stroke-opacity="0.18"/>
<text x="61" y="165.6" font-size="11" fill="#7a7367" text-anchor="end">0.12</text>
<line x1="66" y1="103.8" x2="70" y2="103.8" stroke="#1a1a1a"/>
<line x1="70" y1="103.8" x2="790" y2="103.8" stroke="#7a7367" stroke-opacity="0.18"/>
<text x="61" y="107.8" font-size="11" fill="#7a7367" text-anchor="end">0.13</text>
<line x1="66" y1="46.0" x2="70" y2="46.0" stroke="#1a1a1a"/>
<line x1="70" y1="46.0" x2="790" y2="46.0" stroke="#7a7367" stroke-opacity="0.18"/>
<text x="61" y="50.0" font-size="11" fill="#7a7367" text-anchor="end">0.14</text>
<text x="430.0" y="406" font-size="12.5" fill="#7a7367" text-anchor="middle">spin velocity  v = ½·log(t/2π)</text>
<text x="18" y="205.0" font-size="12.5" fill="#7a7367" text-anchor="middle" transform="rotate(-90 18 205.0)">std(S) / v</text>
<polyline points="128.6,80.7 481.1,236.8 599.3,259.9 703.6,294.6 752.8,306.2" fill="none" stroke="#c0392b" stroke-width="2"/>
<circle cx="128.6" cy="80.7" r="4.5" fill="#c0392b"/>
<text x="128.6" y="71.7" font-size="10.5" fill="#7a7367" text-anchor="middle">0.134</text>
<circle cx="481.1" cy="236.8" r="4.5" fill="#c0392b"/>
<text x="481.1" y="227.8" font-size="10.5" fill="#7a7367" text-anchor="middle">0.107</text>
<circle cx="599.3" cy="259.9" r="4.5" fill="#c0392b"/>
<text x="599.3" y="250.9" font-size="10.5" fill="#7a7367" text-anchor="middle">0.103</text>
<circle cx="703.6" cy="294.6" r="4.5" fill="#c0392b"/>
<text x="703.6" y="285.6" font-size="10.5" fill="#7a7367" text-anchor="middle">0.097</text>
<circle cx="752.8" cy="306.2" r="4.5" fill="#c0392b"/>
<text x="752.8" y="297.2" font-size="10.5" fill="#7a7367" text-anchor="middle">0.095</text>
</svg>